<?xml version="1.0" encoding="utf-8"?>
<!-- Generator: Adobe Illustrator 25.2.1, SVG Export Plug-In . SVG Version: 6.00 Build 0)  -->
<svg version="1.1" id="Layer_2" xmlns="http://www.w3.org/2000/svg" xmlns:xlink="http://www.w3.org/1999/xlink" x="0px" y="0px"
	 viewBox="0 0 850 850" style="enable-background:new 0 0 850 850;" xml:space="preserve">
<style type="text/css">
	.st0{fill:#FFFFFF;}
</style>
<g>
	<circle cx="501.49" cy="463.09" r="12"/>
	<circle cx="354.6" cy="463.09" r="12"/>
	<path d="M625.41,566.8h-22.23V448.57h22.23c3.91,0,7.07,3.17,7.07,7.07v104.08C632.48,563.63,629.32,566.8,625.41,566.8z"/>
	<path d="M664.57,536.99h-10.61c-2.65,0-4.8-2.15-4.8-4.8v-43.45c0-2.65,2.15-4.8,4.8-4.8h10.61c2.65,0,4.8,2.15,4.8,4.8v43.45
		C669.37,534.84,667.22,536.99,664.57,536.99z"/>
	<path d="M590.55,431.39h8.33v-33.35c0-9.63-7.8-17.43-17.43-17.43H425h-1.19H267.36c-9.63,0-17.43,7.8-17.43,17.43v33.35h8.33
		c5.03,0,9.1,4.07,9.1,9.09v137.44c0,5.02-4.07,9.09-9.1,9.09h-8.33v35.37c0,9.63,7.8,17.43,17.43,17.43h156.45H425h156.45
		c9.63,0,17.43-7.8,17.43-17.43v-35.37h-8.33c-5.03,0-9.1-4.07-9.1-9.09V440.48C581.45,435.46,585.52,431.39,590.55,431.39z
		 M351.95,510.21c-20.23,0-36.63-16.4-36.63-36.63s16.4-36.63,36.63-36.63c20.23,0,36.63,16.4,36.63,36.63
		S372.18,510.21,351.95,510.21z M457.69,563.82c-9.11,6.59-20.85,10.21-33.08,10.21c-11.77,0-23.18-3.39-32.13-9.55
		c-4.1-2.82-5.13-8.42-2.32-12.52c2.82-4.09,8.42-5.13,12.52-2.32c5.98,4.11,13.77,6.38,21.93,6.38c8.47,0,16.47-2.42,22.53-6.8
		c4.03-2.91,9.65-2.01,12.57,2.02C462.62,555.28,461.72,560.9,457.69,563.82z M498.84,510.21c-20.23,0-36.63-16.4-36.63-36.63
		s16.4-36.63,36.63-36.63s36.63,16.4,36.63,36.63S519.07,510.21,498.84,510.21z"/>
	<path d="M223.4,566.8h22.23V448.57H223.4c-3.91,0-7.07,3.17-7.07,7.07v104.08C216.33,563.63,219.5,566.8,223.4,566.8z"/>
	<path d="M184.25,536.99h10.61c2.65,0,4.8-2.15,4.8-4.8v-43.45c0-2.65-2.15-4.8-4.8-4.8h-10.61c-2.65,0-4.8,2.15-4.8,4.8v43.45
		C179.45,534.84,181.59,536.99,184.25,536.99z"/>
	<path d="M423.81,356.36H270.39c0,0-31.07,1.52-39.41,29.56c-66.19-43.96-74.17-89.78-62.65-102.57
		c13.77-15.28,29.37-7.45,102.82,22.23c62.91,25.42,152.66,22.74,152.66,22.74H425c0,0,89.76,2.69,152.66-22.74
		c73.45-29.68,89.05-37.52,102.82-22.23c11.52,12.79,3.54,58.61-62.65,102.57c-8.34-28.04-39.41-29.56-39.41-29.56H425H423.81z"/>
	<path d="M423.81,238.13c-17.38,0-33.45-13.33-54.02-26.01c-17.57-10.84-40.64-2.04-46.48,17.76l-17.3,58.65
		c44.34,16.29,117.8,16.67,117.8,16.67H425c0,0,73.46-0.38,117.8-16.67l-17.3-58.65c-5.84-19.8-28.91-28.6-46.48-17.76
		c-20.57,12.68-36.64,26.01-54.02,26.01H423.81z"/>
</g>
</svg>
